<?xml version="1.0" encoding="UTF-8"?>
<!DOCTYPE svg PUBLIC "-//W3C//DTD SVG 1.1//EN" "http://www.w3.org/Graphics/SVG/1.1/DTD/svg11.dtd">
<!-- Creator: CorelDRAW -->
<svg xmlns="http://www.w3.org/2000/svg" xml:space="preserve" width="210mm" height="255mm" style="shape-rendering:geometricPrecision; text-rendering:geometricPrecision; image-rendering:optimizeQuality; fill-rule:evenodd; clip-rule:evenodd"
viewBox="0 0 210 255"
 xmlns:xlink="http://www.w3.org/1999/xlink">
 <defs>
  <style type="text/css">
   <![CDATA[
    .fil0 {fill:#4D485B}
   ]]>
  </style>
 </defs>
 <g id="Layer_x0020_1">
  <metadata id="CorelCorpID_0Corel-Layer"/>
  <path class="fil0" d="M208.842 254.404l-195.229 0 0 -11.8976 -12.455 0 0 -226.924 31.745 0c0.3038,-4.2529 1.5692,-7.7972 3.8475,-10.6831 2.2784,-2.886 4.9621,-4.3038 7.9999,-4.3038 7.0372,0 10.9361,5.0124 11.7458,14.9869l27.8975 0c0.253,-4.2529 1.5691,-7.7972 3.8475,-10.6831 2.2783,-2.886 4.9113,-4.3038 7.9999,-4.3038 7.0372,0 10.9361,5.0124 11.6956,14.9869l29.2639 0c0.2529,-4.2529 1.5697,-7.7972 3.8481,-10.6831 2.2783,-2.886 4.9107,-4.3038 7.9993,-4.3038 7.0378,0 10.9361,5.0124 11.6955,14.9869l35.6433 0 0 11.8474 12.455 0 0 226.974zm-5.9739 -5.9237l0 -215.076 -6.4811 0 0 209.102 -176.85 0 0 5.9739 183.331 0zm-12.455 -11.8977l0 -215.076 -41.213 0c0.3038,2.2783 1.2151,3.9994 2.734,5.2145 1.5189,1.1649 2.3292,2.2783 2.3292,3.2405 0,2.987 -1.7725,4.4556 -5.2151,4.4556 -6.3285,0 -10.2275,-4.3037 -11.6955,-12.9106l-40.9595 0c0.3038,2.2783 1.2151,3.9994 2.734,5.2145 1.5189,1.1649 2.3286,2.2783 2.3286,3.2405 0,2.987 -1.7718,4.4556 -5.2145,4.4556 -6.3291,0 -10.2274,-4.3037 -11.6955,-12.9106l-39.6433 0c0.3038,2.2783 1.2152,3.9994 2.7843,5.2145 1.5189,1.1649 2.2783,2.2783 2.2783,3.2405 0,2.987 -1.721,4.4556 -5.2145,4.4556 -6.3291,0 -10.2274,-4.3037 -11.6955,-12.9106l-25.9732 0 0 215.076 183.331 0zm-54.2755 -44.5037l-77.7169 0 0 -18.6825 27.2894 0 0 -72.8061 -21.3657 12.3031 -9.468 -16.0495 35.5931 -20.7587 18.3787 0 0 97.3112 27.2894 0 0 18.6825z"/>
 </g>
</svg>
