<?xml version="1.0" encoding="UTF-8" standalone="no"?>
<!-- Created with Inkscape (http://www.inkscape.org/) -->
<svg id="svg2" xmlns:rdf="http://www.w3.org/1999/02/22-rdf-syntax-ns#" xmlns="http://www.w3.org/2000/svg" height="128" width="128" version="1.1" xmlns:cc="http://creativecommons.org/ns#" xmlns:xlink="http://www.w3.org/1999/xlink" xmlns:dc="http://purl.org/dc/elements/1.1/">
 <metadata id="metadata8">
  <rdf:RDF>
   <cc:Work rdf:about="">
    <dc:format>image/svg+xml</dc:format>
    <dc:type rdf:resource="http://purl.org/dc/dcmitype/StillImage"/>
    <dc:title/>
   </cc:Work>
  </rdf:RDF>
 </metadata>
 <defs id="defs6">
  <linearGradient id="linearGradient3806" y2="42.547" gradientUnits="userSpaceOnUse" x2="104.53" gradientTransform="translate(-20)" y1="42.547" x1="20.75">
   <stop id="stop3802" stop-color="#a8a8bd" offset="0"/>
   <stop id="stop3804" stop-color="#fff" offset="1"/>
  </linearGradient>
  <radialGradient id="radialGradient3872-9" gradientUnits="userSpaceOnUse" cy="74.558" cx="83.082" gradientTransform="matrix(.99275 -.0031786 .0028749 .89791 .43033 7.8543)" r="32.465">
   <stop id="stop3821-4" stop-color="#fff" stop-opacity="0" offset="0"/>
   <stop id="stop3829-6" stop-color="#b2e4ff" stop-opacity=".64840" offset=".55318"/>
   <stop id="stop3823-2" stop-color="#126bf3" stop-opacity="0.6" offset="1"/>
  </radialGradient>
  <radialGradient id="radialGradient3899" gradientUnits="userSpaceOnUse" cx="83.082" cy="74.558" r="32.465" gradientTransform="matrix(.99275 .0031786 .0028749 -.89791 .43033 77.34)">
   <stop id="stop3821-3-8" stop-color="#fff" stop-opacity="0" offset="0"/>
   <stop id="stop3829-7-1" stop-color="#b2e4ff" stop-opacity=".64840" offset=".55318"/>
   <stop id="stop3823-7-9" stop-color="#126bf3" stop-opacity="0.6" offset="1"/>
  </radialGradient>
  <radialGradient id="radialGradient3967" gradientUnits="userSpaceOnUse" cx="115.7" cy="19.612" r="31.062" gradientTransform="matrix(-.97934 1.0196 -1.08 -.94762 176.77 -88.392)">
   <stop id="stop3946-9" stop-color="#f3feff" stop-opacity=".96078" offset="0"/>
   <stop id="stop3948-5" stop-color="#fff" stop-opacity="0" offset="1"/>
  </radialGradient>
  <linearGradient id="linearGradient4016-9" y2="85.671" gradientUnits="userSpaceOnUse" x2="100.57" gradientTransform="translate(-92.463 48.775)" y1="85.879" x1="84.104">
   <stop id="stop4012-8" stop-color="#f18d00" offset="0"/>
   <stop id="stop4022-0" stop-color="#fdcb63" offset=".61522"/>
   <stop id="stop4020-9" stop-color="#ffffd5" offset=".74234"/>
   <stop id="stop4018-4" stop-color="#ffe575" offset=".83530"/>
   <stop id="stop4014-0" stop-color="#ffce34" offset="1"/>
  </linearGradient>
  <linearGradient id="linearGradient3998-6" y2="82.198" gradientUnits="userSpaceOnUse" x2="100.81" gradientTransform="translate(-92.463 48.775)" y1="81.917" x1="84.62">
   <stop id="stop3994-4" stop-color="#8b4c10" offset="0"/>
   <stop id="stop3996-3" stop-color="#de8d15" offset="1"/>
  </linearGradient>
  <linearGradient id="linearGradient4060" y2="-9.7237" gradientUnits="userSpaceOnUse" y1="6.8242" gradientTransform="translate(1.0978 .36096)" x2="101.29" x1="101.04">
   <stop id="stop4026-3" stop-color="#e5e5ed" offset="0"/>
   <stop id="stop4028-8" stop-color="#f7f7fa" offset="1"/>
  </linearGradient>
  <linearGradient id="linearGradient4150" y2="115.51" gradientUnits="userSpaceOnUse" y1="125.5" x2="118.84" x1="110.29">
   <stop id="stop4125-8" stop-color="#8a8aa4" offset="0"/>
   <stop id="stop4127-1" stop-color="#d8d8e3" offset="1"/>
  </linearGradient>
  <linearGradient id="linearGradient4152" y2="110.17" gradientUnits="userSpaceOnUse" y1="123.78" x2="119.35" x1="108.39">
   <stop id="stop4117-1" stop-color="#494971" offset="0"/>
   <stop id="stop4119-0" stop-color="#b6b6c7" offset="1"/>
  </linearGradient>
  <linearGradient id="linearGradient4206" y2="53.906" gradientUnits="userSpaceOnUse" y1="64.242" gradientTransform="translate(0 20.517)" x2="85.587" x1="74.973">
   <stop id="stop4185-9" stop-color="#adadc3" offset="0"/>
   <stop id="stop4187-6" stop-color="#e1e1ed" offset="1"/>
  </linearGradient>
 </defs>
 <g id="layer2">
  <g id="g3868" transform="matrix(1.0481 0 0 1.0481 -43.977 -2.0507)">
   <path id="path3817" d="m114.81 42.603c-0.00097 1.8248-0.0724 3.6471-0.21427 4.5314-1.5676 9.7709-7.1656 18.103-15.542 23.133-6.1336 3.6832-14.04 5.2563-21.002 4.1791-7.219-1.117-13.288-4.185-18.295-9.252-6.089-6.161-9.356-14.232-9.356-22.6" fill="url(#radialGradient3872-9)"/>
   <path id="path3817-0" d="m114.81 42.604c-0.00097-1.8248-0.0724-3.6592-0.21427-4.5435-1.57-9.771-7.17-18.103-15.542-23.133-6.134-3.683-14.04-5.2562-21.003-4.179-7.2223 1.1174-13.291 4.1861-18.299 9.2523-6.0892 6.1609-9.356 14.232-9.3556 22.6" fill="url(#radialGradient3899)"/>
  </g>
  <rect id="rect4181" stroke-linejoin="round" height="10.336" width="10.336" stroke="#666687" stroke-linecap="round" y="74.595" x="74.939" stroke-width="2" fill="url(#linearGradient4206)"/>
  <rect id="rect3988" stroke-linejoin="round" transform="rotate(-44.864)" height="5.178" width="6.2447" stroke="#666687" y="104.06" x="-2.6872" stroke-width="2" fill="#cecedb"/>
  <rect id="rect3986" stroke-linejoin="round" transform="rotate(45.235)" height="15.779" width="3.9474" stroke="#666687" y="-8.8576" x="100.53" stroke-width="2" fill="url(#linearGradient4060)"/>
  <path id="path3779" d="m42.625 2.1562c-22.311 0-40.375 18.095-40.375 40.406s18.064 40.375 40.375 40.375 40.406-18.064 40.406-40.375-18.095-40.406-40.406-40.406zm0 6.5312c18.696 0 33.875 15.179 33.875 33.875s-15.179 33.844-33.875 33.844-33.844-15.148-33.844-33.844 15.148-33.875 33.844-33.875z" stroke="#5a5a7e" stroke-width="2" fill="url(#linearGradient3806)"/>
  <path id="path3936" d="m42.425 10.919c-14.432 0-26.476 9.2561-30.362 21.847 1.0312 0.93096 2.0588 1.8593 3.1269 2.63 1.4995 1.082 3.0207 2.0286 4.5652 2.8093 1.5446 0.78068 3.1332 1.4163 4.6903 1.9127 1.5571 0.49638 3.0905 0.84676 4.6278 1.0759 1.5373 0.22913 3.0489 0.31993 4.534 0.29886 1.485-0.02107 2.946-0.16418 4.3463-0.4184 1.4004-0.25422 2.7504-0.60556 4.0337-1.0759 1.2833-0.47033 2.4934-1.064 3.6272-1.7334 0.9225-0.54467 1.9864-0.81012 3.1581-0.89658 1.1718-0.08646 2.4702 0.03 3.8148 0.26897 2.6892 0.47794 5.646 1.4678 8.5676 2.4506 2.9217 0.98284 5.8063 1.9356 8.3487 2.361 1.2712 0.21269 2.4404 0.30519 3.5021 0.17932 0.42881-0.05084 0.7398-0.29713 1.1257-0.4184 0.01004-0.30495 0.09376-0.58944 0.09376-0.89658 0.000054-16.786-14.237-30.394-31.8-30.394z" fill="url(#radialGradient3967)"/>
  <path id="path4105" stroke-linejoin="round" d="m121.97 116.89a8.0108 8.0108 0 1 1 -16.022 0 8.0108 8.0108 0 1 1 16.022 0z" transform="translate(-.68910 -3.6178)" stroke="url(#linearGradient4152)" stroke-linecap="round" stroke-width="2" fill="url(#linearGradient4150)"/>
  <rect id="rect3990" stroke-linejoin="round" transform="rotate(-45.494)" height="48.152" width="18.958" stroke="url(#linearGradient3998-6)" stroke-linecap="round" y="113.57" x="-10.422" stroke-width="2" fill="url(#linearGradient4016-9)"/>
 </g>
</svg>
